<mxfile host="app.diagrams.net" agent="Mozilla/5.0 (Windows NT 10.0; Win64; x64) AppleWebKit/537.36 (KHTML, like Gecko) Chrome/134.0.0.0 Safari/537.36 OPR/119.0.0.0" version="27.1.3">
  <diagram name="Página-1" id="lvf1U2CgUdt2jU9qNTG3">
    <mxGraphModel grid="1" page="1" gridSize="10" guides="1" tooltips="1" connect="1" arrows="1" fold="1" pageScale="1" pageWidth="827" pageHeight="1169" math="0" shadow="0">
      <root>
        <mxCell id="0" />
        <mxCell id="1" parent="0" />
        <mxCell id="_PU9kLbxLvFRYh7I3uTz-2" style="rounded=0;orthogonalLoop=1;jettySize=auto;html=1;exitX=0;exitY=0.5;exitDx=0;exitDy=0;endArrow=none;startFill=0;" edge="1" parent="1" source="_PU9kLbxLvFRYh7I3uTz-1" target="_PU9kLbxLvFRYh7I3uTz-3">
          <mxGeometry relative="1" as="geometry">
            <mxPoint x="240" y="260" as="targetPoint" />
          </mxGeometry>
        </mxCell>
        <mxCell id="_PU9kLbxLvFRYh7I3uTz-4" style="rounded=0;orthogonalLoop=1;jettySize=auto;html=1;exitX=0;exitY=0.75;exitDx=0;exitDy=0;endArrow=none;startFill=0;" edge="1" parent="1" source="_PU9kLbxLvFRYh7I3uTz-1" target="_PU9kLbxLvFRYh7I3uTz-5">
          <mxGeometry relative="1" as="geometry">
            <mxPoint x="250" y="310" as="targetPoint" />
          </mxGeometry>
        </mxCell>
        <mxCell id="_PU9kLbxLvFRYh7I3uTz-6" style="rounded=0;orthogonalLoop=1;jettySize=auto;html=1;endArrow=none;startFill=0;" edge="1" parent="1" target="_PU9kLbxLvFRYh7I3uTz-7">
          <mxGeometry relative="1" as="geometry">
            <mxPoint x="375" y="410" as="targetPoint" />
            <mxPoint x="375" y="340" as="sourcePoint" />
          </mxGeometry>
        </mxCell>
        <mxCell id="_PU9kLbxLvFRYh7I3uTz-61" value="N" style="edgeLabel;html=1;align=center;verticalAlign=middle;resizable=0;points=[];" connectable="0" vertex="1" parent="_PU9kLbxLvFRYh7I3uTz-6">
          <mxGeometry x="0.7636" y="4" relative="1" as="geometry">
            <mxPoint x="1" y="-4" as="offset" />
          </mxGeometry>
        </mxCell>
        <mxCell id="_PU9kLbxLvFRYh7I3uTz-11" style="rounded=0;orthogonalLoop=1;jettySize=auto;html=1;exitX=0;exitY=0.25;exitDx=0;exitDy=0;endArrow=none;startFill=0;" edge="1" parent="1" source="_PU9kLbxLvFRYh7I3uTz-1" target="_PU9kLbxLvFRYh7I3uTz-12">
          <mxGeometry relative="1" as="geometry">
            <mxPoint x="260" y="220" as="targetPoint" />
          </mxGeometry>
        </mxCell>
        <mxCell id="_PU9kLbxLvFRYh7I3uTz-13" style="rounded=0;orthogonalLoop=1;jettySize=auto;html=1;exitX=0.75;exitY=0;exitDx=0;exitDy=0;endArrow=none;startFill=0;" edge="1" parent="1" source="_PU9kLbxLvFRYh7I3uTz-1" target="_PU9kLbxLvFRYh7I3uTz-14">
          <mxGeometry relative="1" as="geometry">
            <mxPoint x="540" y="250" as="targetPoint" />
          </mxGeometry>
        </mxCell>
        <mxCell id="_PU9kLbxLvFRYh7I3uTz-15" style="rounded=0;orthogonalLoop=1;jettySize=auto;html=1;exitX=1;exitY=0.25;exitDx=0;exitDy=0;endArrow=none;startFill=0;" edge="1" parent="1" source="_PU9kLbxLvFRYh7I3uTz-1" target="_PU9kLbxLvFRYh7I3uTz-16">
          <mxGeometry relative="1" as="geometry">
            <mxPoint x="580" y="300" as="targetPoint" />
          </mxGeometry>
        </mxCell>
        <mxCell id="_PU9kLbxLvFRYh7I3uTz-19" style="rounded=0;orthogonalLoop=1;jettySize=auto;html=1;exitX=1;exitY=0.5;exitDx=0;exitDy=0;endArrow=none;startFill=0;entryX=0;entryY=0.5;entryDx=0;entryDy=0;" edge="1" parent="1" source="5Rr3qvpYgy1Libs17Bm0-1" target="_PU9kLbxLvFRYh7I3uTz-20">
          <mxGeometry relative="1" as="geometry">
            <mxPoint x="480" y="360" as="targetPoint" />
          </mxGeometry>
        </mxCell>
        <mxCell id="_PU9kLbxLvFRYh7I3uTz-21" style="rounded=0;orthogonalLoop=1;jettySize=auto;html=1;exitX=0.25;exitY=0;exitDx=0;exitDy=0;endArrow=none;startFill=0;" edge="1" parent="1" source="_PU9kLbxLvFRYh7I3uTz-1" target="_PU9kLbxLvFRYh7I3uTz-22">
          <mxGeometry relative="1" as="geometry">
            <mxPoint x="445" y="160" as="targetPoint" />
          </mxGeometry>
        </mxCell>
        <mxCell id="5Rr3qvpYgy1Libs17Bm0-2" style="rounded=0;orthogonalLoop=1;jettySize=auto;html=1;exitX=0.25;exitY=1;exitDx=0;exitDy=0;endArrow=none;startFill=0;" edge="1" parent="1" source="_PU9kLbxLvFRYh7I3uTz-1" target="5Rr3qvpYgy1Libs17Bm0-1">
          <mxGeometry relative="1" as="geometry" />
        </mxCell>
        <mxCell id="m5g3iq_92Rt_BeEw3amc-2" style="edgeStyle=orthogonalEdgeStyle;rounded=0;orthogonalLoop=1;jettySize=auto;html=1;exitX=1;exitY=0.75;exitDx=0;exitDy=0;endArrow=none;startFill=0;" edge="1" parent="1" source="_PU9kLbxLvFRYh7I3uTz-1" target="m5g3iq_92Rt_BeEw3amc-3">
          <mxGeometry relative="1" as="geometry">
            <mxPoint x="570" y="250" as="targetPoint" />
          </mxGeometry>
        </mxCell>
        <mxCell id="_PU9kLbxLvFRYh7I3uTz-1" value="Pedido" style="shape=associativeEntity;whiteSpace=wrap;html=1;align=center;" vertex="1" parent="1">
          <mxGeometry x="340" y="220" width="140" height="60" as="geometry" />
        </mxCell>
        <mxCell id="_PU9kLbxLvFRYh7I3uTz-3" value="PrazoEntrega" style="ellipse;whiteSpace=wrap;html=1;align=center;" vertex="1" parent="1">
          <mxGeometry x="190" y="230" width="100" height="40" as="geometry" />
        </mxCell>
        <mxCell id="_PU9kLbxLvFRYh7I3uTz-5" value="Frete" style="ellipse;whiteSpace=wrap;html=1;align=center;" vertex="1" parent="1">
          <mxGeometry x="110" y="270" width="100" height="40" as="geometry" />
        </mxCell>
        <mxCell id="_PU9kLbxLvFRYh7I3uTz-8" style="rounded=0;orthogonalLoop=1;jettySize=auto;html=1;exitX=0;exitY=0.75;exitDx=0;exitDy=0;endArrow=none;startFill=0;" edge="1" parent="1" source="_PU9kLbxLvFRYh7I3uTz-7" target="_PU9kLbxLvFRYh7I3uTz-10">
          <mxGeometry relative="1" as="geometry">
            <mxPoint x="280" y="420" as="targetPoint" />
          </mxGeometry>
        </mxCell>
        <mxCell id="_PU9kLbxLvFRYh7I3uTz-34" style="rounded=0;orthogonalLoop=1;jettySize=auto;html=1;exitX=1;exitY=0.5;exitDx=0;exitDy=0;endArrow=none;startFill=0;" edge="1" parent="1" source="_PU9kLbxLvFRYh7I3uTz-7" target="_PU9kLbxLvFRYh7I3uTz-35">
          <mxGeometry relative="1" as="geometry">
            <mxPoint x="470" y="430" as="targetPoint" />
          </mxGeometry>
        </mxCell>
        <mxCell id="_PU9kLbxLvFRYh7I3uTz-36" style="rounded=0;orthogonalLoop=1;jettySize=auto;html=1;exitX=0;exitY=0.25;exitDx=0;exitDy=0;endArrow=none;startFill=0;" edge="1" parent="1" source="_PU9kLbxLvFRYh7I3uTz-7" target="_PU9kLbxLvFRYh7I3uTz-37">
          <mxGeometry relative="1" as="geometry">
            <mxPoint x="325" y="360" as="targetPoint" />
          </mxGeometry>
        </mxCell>
        <mxCell id="_PU9kLbxLvFRYh7I3uTz-38" style="rounded=0;orthogonalLoop=1;jettySize=auto;html=1;exitX=0.5;exitY=1;exitDx=0;exitDy=0;endArrow=none;startFill=0;endFill=0;" edge="1" parent="1" source="_PU9kLbxLvFRYh7I3uTz-7" target="_PU9kLbxLvFRYh7I3uTz-105">
          <mxGeometry relative="1" as="geometry">
            <mxPoint x="375" y="480" as="targetPoint" />
          </mxGeometry>
        </mxCell>
        <mxCell id="_PU9kLbxLvFRYh7I3uTz-7" value="Produto" style="whiteSpace=wrap;html=1;align=center;" vertex="1" parent="1">
          <mxGeometry x="325" y="390" width="100" height="40" as="geometry" />
        </mxCell>
        <mxCell id="_PU9kLbxLvFRYh7I3uTz-10" value="ID_Produto" style="ellipse;whiteSpace=wrap;html=1;align=center;fontStyle=4;" vertex="1" parent="1">
          <mxGeometry x="152.5" y="420" width="100" height="40" as="geometry" />
        </mxCell>
        <mxCell id="_PU9kLbxLvFRYh7I3uTz-12" value="Comissão" style="ellipse;whiteSpace=wrap;html=1;align=center;" vertex="1" parent="1">
          <mxGeometry x="110" y="190" width="100" height="40" as="geometry" />
        </mxCell>
        <mxCell id="_PU9kLbxLvFRYh7I3uTz-14" value="QuantidadeParcelas" style="ellipse;whiteSpace=wrap;html=1;align=center;" vertex="1" parent="1">
          <mxGeometry x="380" y="70" width="130" height="40" as="geometry" />
        </mxCell>
        <mxCell id="_PU9kLbxLvFRYh7I3uTz-16" value="Data" style="ellipse;whiteSpace=wrap;html=1;align=center;" vertex="1" parent="1">
          <mxGeometry x="540" y="170" width="100" height="40" as="geometry" />
        </mxCell>
        <mxCell id="_PU9kLbxLvFRYh7I3uTz-20" value="Quantidade" style="ellipse;whiteSpace=wrap;html=1;align=center;" vertex="1" parent="1">
          <mxGeometry x="455" y="315" width="100" height="40" as="geometry" />
        </mxCell>
        <mxCell id="_PU9kLbxLvFRYh7I3uTz-22" value="Valor" style="ellipse;whiteSpace=wrap;html=1;align=center;" vertex="1" parent="1">
          <mxGeometry x="327.5" y="110" width="100" height="40" as="geometry" />
        </mxCell>
        <mxCell id="_PU9kLbxLvFRYh7I3uTz-25" style="rounded=0;orthogonalLoop=1;jettySize=auto;html=1;exitX=1;exitY=0.5;exitDx=0;exitDy=0;endArrow=none;startFill=0;" edge="1" parent="1" source="_PU9kLbxLvFRYh7I3uTz-24" target="_PU9kLbxLvFRYh7I3uTz-26">
          <mxGeometry relative="1" as="geometry">
            <mxPoint x="895" y="265" as="targetPoint" />
          </mxGeometry>
        </mxCell>
        <mxCell id="_PU9kLbxLvFRYh7I3uTz-27" style="rounded=0;orthogonalLoop=1;jettySize=auto;html=1;exitX=1;exitY=0;exitDx=0;exitDy=0;endArrow=none;startFill=0;" edge="1" parent="1" source="_PU9kLbxLvFRYh7I3uTz-24" target="_PU9kLbxLvFRYh7I3uTz-28">
          <mxGeometry relative="1" as="geometry">
            <mxPoint x="855" y="205" as="targetPoint" />
          </mxGeometry>
        </mxCell>
        <mxCell id="_PU9kLbxLvFRYh7I3uTz-29" style="rounded=0;orthogonalLoop=1;jettySize=auto;html=1;exitX=1;exitY=1;exitDx=0;exitDy=0;endArrow=none;startFill=0;" edge="1" parent="1" source="_PU9kLbxLvFRYh7I3uTz-24" target="_PU9kLbxLvFRYh7I3uTz-30">
          <mxGeometry relative="1" as="geometry">
            <mxPoint x="845" y="315" as="targetPoint" />
          </mxGeometry>
        </mxCell>
        <mxCell id="_PU9kLbxLvFRYh7I3uTz-31" style="rounded=0;orthogonalLoop=1;jettySize=auto;html=1;exitX=0.5;exitY=1;exitDx=0;exitDy=0;endArrow=none;startFill=0;" edge="1" parent="1" source="_PU9kLbxLvFRYh7I3uTz-24" target="_PU9kLbxLvFRYh7I3uTz-32">
          <mxGeometry relative="1" as="geometry">
            <mxPoint x="745" y="335" as="targetPoint" />
          </mxGeometry>
        </mxCell>
        <mxCell id="_PU9kLbxLvFRYh7I3uTz-24" value="Parcela" style="whiteSpace=wrap;html=1;align=center;" vertex="1" parent="1">
          <mxGeometry x="695" y="245" width="100" height="40" as="geometry" />
        </mxCell>
        <mxCell id="_PU9kLbxLvFRYh7I3uTz-26" value="ID_Parcela" style="ellipse;whiteSpace=wrap;html=1;align=center;fontStyle=4;" vertex="1" parent="1">
          <mxGeometry x="855" y="245" width="100" height="40" as="geometry" />
        </mxCell>
        <mxCell id="_PU9kLbxLvFRYh7I3uTz-28" value="FormaPagamento" style="ellipse;whiteSpace=wrap;html=1;align=center;" vertex="1" parent="1">
          <mxGeometry x="832" y="185" width="100" height="40" as="geometry" />
        </mxCell>
        <mxCell id="_PU9kLbxLvFRYh7I3uTz-30" value="Valor" style="ellipse;whiteSpace=wrap;html=1;align=center;" vertex="1" parent="1">
          <mxGeometry x="835" y="315" width="100" height="40" as="geometry" />
        </mxCell>
        <mxCell id="_PU9kLbxLvFRYh7I3uTz-32" value="DataPagamento" style="ellipse;whiteSpace=wrap;html=1;align=center;" vertex="1" parent="1">
          <mxGeometry x="695" y="315" width="100" height="40" as="geometry" />
        </mxCell>
        <mxCell id="_PU9kLbxLvFRYh7I3uTz-35" value="Nome" style="ellipse;whiteSpace=wrap;html=1;align=center;" vertex="1" parent="1">
          <mxGeometry x="470" y="390" width="100" height="40" as="geometry" />
        </mxCell>
        <mxCell id="_PU9kLbxLvFRYh7I3uTz-37" value="Valor" style="ellipse;whiteSpace=wrap;html=1;align=center;" vertex="1" parent="1">
          <mxGeometry x="150" y="370" width="100" height="40" as="geometry" />
        </mxCell>
        <mxCell id="_PU9kLbxLvFRYh7I3uTz-62" style="rounded=0;orthogonalLoop=1;jettySize=auto;html=1;exitX=0;exitY=0;exitDx=0;exitDy=0;endArrow=none;startFill=0;entryX=0.5;entryY=1;entryDx=0;entryDy=0;" edge="1" parent="1" source="_PU9kLbxLvFRYh7I3uTz-47" target="_PU9kLbxLvFRYh7I3uTz-96">
          <mxGeometry relative="1" as="geometry">
            <mxPoint x="490" y="-50" as="targetPoint" />
          </mxGeometry>
        </mxCell>
        <mxCell id="_PU9kLbxLvFRYh7I3uTz-63" style="rounded=0;orthogonalLoop=1;jettySize=auto;html=1;exitX=1;exitY=0;exitDx=0;exitDy=0;endArrow=none;startFill=0;entryX=0.5;entryY=1;entryDx=0;entryDy=0;" edge="1" parent="1" source="_PU9kLbxLvFRYh7I3uTz-47" target="_PU9kLbxLvFRYh7I3uTz-74">
          <mxGeometry relative="1" as="geometry">
            <mxPoint x="700" y="-60" as="targetPoint" />
          </mxGeometry>
        </mxCell>
        <mxCell id="_PU9kLbxLvFRYh7I3uTz-64" style="rounded=0;orthogonalLoop=1;jettySize=auto;html=1;exitX=0.5;exitY=1;exitDx=0;exitDy=0;endArrow=none;startFill=0;" edge="1" parent="1" source="_PU9kLbxLvFRYh7I3uTz-47">
          <mxGeometry relative="1" as="geometry">
            <mxPoint x="590" y="90" as="targetPoint" />
          </mxGeometry>
        </mxCell>
        <mxCell id="_PU9kLbxLvFRYh7I3uTz-66" style="rounded=0;orthogonalLoop=1;jettySize=auto;html=1;exitX=0.25;exitY=0;exitDx=0;exitDy=0;endArrow=none;startFill=0;entryX=0.5;entryY=1;entryDx=0;entryDy=0;" edge="1" parent="1" source="_PU9kLbxLvFRYh7I3uTz-47" target="aaiw1BDzL_tDE3YJd6zU-3">
          <mxGeometry relative="1" as="geometry">
            <mxPoint x="590" y="-30" as="targetPoint" />
          </mxGeometry>
        </mxCell>
        <mxCell id="_PU9kLbxLvFRYh7I3uTz-68" style="rounded=0;orthogonalLoop=1;jettySize=auto;html=1;exitX=1;exitY=0.25;exitDx=0;exitDy=0;endArrow=none;startFill=0;" edge="1" parent="1" source="_PU9kLbxLvFRYh7I3uTz-47" target="_PU9kLbxLvFRYh7I3uTz-69">
          <mxGeometry relative="1" as="geometry">
            <mxPoint x="750" as="targetPoint" />
          </mxGeometry>
        </mxCell>
        <mxCell id="_PU9kLbxLvFRYh7I3uTz-70" style="rounded=0;orthogonalLoop=1;jettySize=auto;html=1;exitX=1;exitY=0.75;exitDx=0;exitDy=0;endArrow=none;startFill=0;" edge="1" parent="1" source="_PU9kLbxLvFRYh7I3uTz-47" target="_PU9kLbxLvFRYh7I3uTz-71">
          <mxGeometry relative="1" as="geometry">
            <mxPoint x="770" y="80" as="targetPoint" />
          </mxGeometry>
        </mxCell>
        <mxCell id="_PU9kLbxLvFRYh7I3uTz-72" style="rounded=0;orthogonalLoop=1;jettySize=auto;html=1;exitX=0.75;exitY=1;exitDx=0;exitDy=0;endArrow=none;startFill=0;entryX=0;entryY=0;entryDx=0;entryDy=0;" edge="1" parent="1" source="_PU9kLbxLvFRYh7I3uTz-47" target="aaiw1BDzL_tDE3YJd6zU-1">
          <mxGeometry relative="1" as="geometry">
            <mxPoint x="474" y="30" as="targetPoint" />
          </mxGeometry>
        </mxCell>
        <mxCell id="s_ojGgU6DRaEUJz3Hm9i-2" style="rounded=0;orthogonalLoop=1;jettySize=auto;html=1;exitX=1;exitY=0.5;exitDx=0;exitDy=0;endArrow=none;startFill=0;" edge="1" parent="1" source="_PU9kLbxLvFRYh7I3uTz-47" target="s_ojGgU6DRaEUJz3Hm9i-3">
          <mxGeometry relative="1" as="geometry">
            <mxPoint x="850" y="30" as="targetPoint" />
          </mxGeometry>
        </mxCell>
        <mxCell id="ow0F6I_q-5kkgGnikvDh-1" style="edgeStyle=orthogonalEdgeStyle;rounded=0;orthogonalLoop=1;jettySize=auto;html=1;exitX=0;exitY=0.5;exitDx=0;exitDy=0;endArrow=none;startFill=0;" edge="1" parent="1" source="_PU9kLbxLvFRYh7I3uTz-47" target="ow0F6I_q-5kkgGnikvDh-2">
          <mxGeometry relative="1" as="geometry">
            <mxPoint x="430" y="30" as="targetPoint" />
          </mxGeometry>
        </mxCell>
        <mxCell id="_PU9kLbxLvFRYh7I3uTz-47" value="Cliente" style="whiteSpace=wrap;html=1;align=center;" vertex="1" parent="1">
          <mxGeometry x="540" y="10" width="100" height="40" as="geometry" />
        </mxCell>
        <mxCell id="_PU9kLbxLvFRYh7I3uTz-50" style="edgeStyle=orthogonalEdgeStyle;rounded=0;orthogonalLoop=1;jettySize=auto;html=1;exitX=0;exitY=0.5;exitDx=0;exitDy=0;endArrow=none;startFill=0;" edge="1" parent="1" source="_PU9kLbxLvFRYh7I3uTz-49" target="_PU9kLbxLvFRYh7I3uTz-52">
          <mxGeometry relative="1" as="geometry">
            <mxPoint x="170" y="120" as="targetPoint" />
          </mxGeometry>
        </mxCell>
        <mxCell id="_PU9kLbxLvFRYh7I3uTz-53" style="rounded=0;orthogonalLoop=1;jettySize=auto;html=1;exitX=0.5;exitY=0;exitDx=0;exitDy=0;endArrow=none;startFill=0;" edge="1" parent="1" source="_PU9kLbxLvFRYh7I3uTz-49" target="_PU9kLbxLvFRYh7I3uTz-55">
          <mxGeometry relative="1" as="geometry">
            <mxPoint x="260" y="70" as="targetPoint" />
          </mxGeometry>
        </mxCell>
        <mxCell id="_PU9kLbxLvFRYh7I3uTz-49" value="Representante" style="whiteSpace=wrap;html=1;align=center;" vertex="1" parent="1">
          <mxGeometry x="205" y="10" width="100" height="40" as="geometry" />
        </mxCell>
        <mxCell id="_PU9kLbxLvFRYh7I3uTz-52" value="Nome" style="ellipse;whiteSpace=wrap;html=1;align=center;" vertex="1" parent="1">
          <mxGeometry x="70" y="10" width="100" height="40" as="geometry" />
        </mxCell>
        <mxCell id="_PU9kLbxLvFRYh7I3uTz-55" value="ID_Representante" style="ellipse;whiteSpace=wrap;html=1;align=center;fontStyle=4;" vertex="1" parent="1">
          <mxGeometry x="195" y="-50" width="120" height="40" as="geometry" />
        </mxCell>
        <mxCell id="_PU9kLbxLvFRYh7I3uTz-57" value="" style="rounded=0;orthogonalLoop=1;jettySize=auto;html=1;exitX=0.793;exitY=0.283;exitDx=0;exitDy=0;endArrow=none;startFill=0;entryX=0.25;entryY=1;entryDx=0;entryDy=0;exitPerimeter=0;" edge="1" parent="1" source="_PU9kLbxLvFRYh7I3uTz-1" target="_PU9kLbxLvFRYh7I3uTz-47">
          <mxGeometry relative="1" as="geometry">
            <mxPoint x="537.6470588235295" y="150" as="targetPoint" />
            <mxPoint x="480" y="220" as="sourcePoint" />
          </mxGeometry>
        </mxCell>
        <mxCell id="_PU9kLbxLvFRYh7I3uTz-58" value="N" style="text;html=1;align=center;verticalAlign=middle;resizable=0;points=[];autosize=1;strokeColor=none;fillColor=none;" vertex="1" parent="1">
          <mxGeometry x="525" y="50" width="30" height="30" as="geometry" />
        </mxCell>
        <mxCell id="_PU9kLbxLvFRYh7I3uTz-60" value="" style="rounded=0;orthogonalLoop=1;jettySize=auto;html=1;endArrow=none;startFill=0;entryX=0.75;entryY=1;entryDx=0;entryDy=0;exitX=0.214;exitY=0.283;exitDx=0;exitDy=0;exitPerimeter=0;" edge="1" parent="1" source="_PU9kLbxLvFRYh7I3uTz-1" target="_PU9kLbxLvFRYh7I3uTz-49">
          <mxGeometry relative="1" as="geometry">
            <mxPoint x="273" y="120" as="targetPoint" />
            <mxPoint x="370" y="230" as="sourcePoint" />
          </mxGeometry>
        </mxCell>
        <mxCell id="_PU9kLbxLvFRYh7I3uTz-59" value="1" style="text;html=1;align=center;verticalAlign=middle;resizable=0;points=[];autosize=1;strokeColor=none;fillColor=none;" vertex="1" parent="1">
          <mxGeometry x="285" y="50" width="30" height="30" as="geometry" />
        </mxCell>
        <mxCell id="_PU9kLbxLvFRYh7I3uTz-69" value="ID_Cliente" style="ellipse;whiteSpace=wrap;html=1;align=center;fontStyle=4;" vertex="1" parent="1">
          <mxGeometry x="740" y="-20" width="100" height="40" as="geometry" />
        </mxCell>
        <mxCell id="_PU9kLbxLvFRYh7I3uTz-71" value="Telefone" style="ellipse;shape=doubleEllipse;margin=3;whiteSpace=wrap;html=1;align=center;" vertex="1" parent="1">
          <mxGeometry x="740" y="40" width="100" height="40" as="geometry" />
        </mxCell>
        <mxCell id="_PU9kLbxLvFRYh7I3uTz-75" style="rounded=0;orthogonalLoop=1;jettySize=auto;html=1;exitX=1;exitY=0.5;exitDx=0;exitDy=0;endArrow=none;startFill=0;" edge="1" parent="1" source="_PU9kLbxLvFRYh7I3uTz-74">
          <mxGeometry relative="1" as="geometry">
            <mxPoint x="940" y="-155" as="targetPoint" />
          </mxGeometry>
        </mxCell>
        <mxCell id="_PU9kLbxLvFRYh7I3uTz-77" style="rounded=0;orthogonalLoop=1;jettySize=auto;html=1;exitX=1;exitY=1;exitDx=0;exitDy=0;endArrow=none;startFill=0;entryX=0;entryY=0;entryDx=0;entryDy=0;" edge="1" parent="1" source="_PU9kLbxLvFRYh7I3uTz-74" target="_PU9kLbxLvFRYh7I3uTz-78">
          <mxGeometry relative="1" as="geometry">
            <mxPoint x="935.9546751853375" y="-114.64740718770372" as="targetPoint" />
          </mxGeometry>
        </mxCell>
        <mxCell id="_PU9kLbxLvFRYh7I3uTz-81" style="rounded=0;orthogonalLoop=1;jettySize=auto;html=1;exitX=0;exitY=0.5;exitDx=0;exitDy=0;endArrow=none;startFill=0;" edge="1" parent="1" source="_PU9kLbxLvFRYh7I3uTz-74" target="_PU9kLbxLvFRYh7I3uTz-82">
          <mxGeometry relative="1" as="geometry">
            <mxPoint x="670" y="-125" as="targetPoint" />
          </mxGeometry>
        </mxCell>
        <mxCell id="_PU9kLbxLvFRYh7I3uTz-83" style="rounded=0;orthogonalLoop=1;jettySize=auto;html=1;exitX=0;exitY=1;exitDx=0;exitDy=0;endArrow=none;startFill=0;" edge="1" parent="1" source="_PU9kLbxLvFRYh7I3uTz-74" target="_PU9kLbxLvFRYh7I3uTz-84">
          <mxGeometry relative="1" as="geometry">
            <mxPoint x="760" y="-120" as="targetPoint" />
          </mxGeometry>
        </mxCell>
        <mxCell id="_PU9kLbxLvFRYh7I3uTz-85" style="rounded=0;orthogonalLoop=1;jettySize=auto;html=1;exitX=0;exitY=0;exitDx=0;exitDy=0;endArrow=none;startFill=0;" edge="1" parent="1" source="_PU9kLbxLvFRYh7I3uTz-74" target="_PU9kLbxLvFRYh7I3uTz-86">
          <mxGeometry relative="1" as="geometry">
            <mxPoint x="740" y="-200" as="targetPoint" />
          </mxGeometry>
        </mxCell>
        <mxCell id="_PU9kLbxLvFRYh7I3uTz-87" style="rounded=0;orthogonalLoop=1;jettySize=auto;html=1;exitX=1;exitY=0;exitDx=0;exitDy=0;endArrow=none;startFill=0;" edge="1" parent="1" source="_PU9kLbxLvFRYh7I3uTz-74" target="_PU9kLbxLvFRYh7I3uTz-88">
          <mxGeometry relative="1" as="geometry">
            <mxPoint x="845" y="-220" as="targetPoint" />
          </mxGeometry>
        </mxCell>
        <mxCell id="_PU9kLbxLvFRYh7I3uTz-74" value="EndereçoEnt" style="ellipse;shape=doubleEllipse;margin=3;whiteSpace=wrap;html=1;align=center;" vertex="1" parent="1">
          <mxGeometry x="790" y="-180" width="110" height="50" as="geometry" />
        </mxCell>
        <mxCell id="_PU9kLbxLvFRYh7I3uTz-76" value="Estado" style="ellipse;whiteSpace=wrap;html=1;align=center;" vertex="1" parent="1">
          <mxGeometry x="940" y="-175" width="100" height="40" as="geometry" />
        </mxCell>
        <mxCell id="_PU9kLbxLvFRYh7I3uTz-78" value="Cidade" style="ellipse;whiteSpace=wrap;html=1;align=center;" vertex="1" parent="1">
          <mxGeometry x="930" y="-120" width="100" height="40" as="geometry" />
        </mxCell>
        <mxCell id="_PU9kLbxLvFRYh7I3uTz-82" value="Logradouro" style="ellipse;whiteSpace=wrap;html=1;align=center;" vertex="1" parent="1">
          <mxGeometry x="630" y="-175" width="100" height="40" as="geometry" />
        </mxCell>
        <mxCell id="_PU9kLbxLvFRYh7I3uTz-84" value="Bairro" style="ellipse;whiteSpace=wrap;html=1;align=center;" vertex="1" parent="1">
          <mxGeometry x="650" y="-120" width="100" height="40" as="geometry" />
        </mxCell>
        <mxCell id="_PU9kLbxLvFRYh7I3uTz-86" value="Número" style="ellipse;whiteSpace=wrap;html=1;align=center;" vertex="1" parent="1">
          <mxGeometry x="650" y="-230" width="100" height="40" as="geometry" />
        </mxCell>
        <mxCell id="_PU9kLbxLvFRYh7I3uTz-88" value="Complemento" style="ellipse;whiteSpace=wrap;html=1;align=center;" vertex="1" parent="1">
          <mxGeometry x="930" y="-230" width="100" height="40" as="geometry" />
        </mxCell>
        <mxCell id="_PU9kLbxLvFRYh7I3uTz-89" style="rounded=0;orthogonalLoop=1;jettySize=auto;html=1;exitX=1;exitY=0.5;exitDx=0;exitDy=0;endArrow=none;startFill=0;" edge="1" parent="1" source="_PU9kLbxLvFRYh7I3uTz-96">
          <mxGeometry relative="1" as="geometry">
            <mxPoint x="460" y="-155" as="targetPoint" />
          </mxGeometry>
        </mxCell>
        <mxCell id="_PU9kLbxLvFRYh7I3uTz-90" style="rounded=0;orthogonalLoop=1;jettySize=auto;html=1;exitX=1;exitY=1;exitDx=0;exitDy=0;endArrow=none;startFill=0;" edge="1" parent="1" source="_PU9kLbxLvFRYh7I3uTz-96" target="_PU9kLbxLvFRYh7I3uTz-98">
          <mxGeometry relative="1" as="geometry">
            <mxPoint x="360" y="-80" as="targetPoint" />
          </mxGeometry>
        </mxCell>
        <mxCell id="_PU9kLbxLvFRYh7I3uTz-91" style="rounded=0;orthogonalLoop=1;jettySize=auto;html=1;exitX=1;exitY=0;exitDx=0;exitDy=0;endArrow=none;startFill=0;entryX=0;entryY=1;entryDx=0;entryDy=0;" edge="1" parent="1" source="_PU9kLbxLvFRYh7I3uTz-96" target="_PU9kLbxLvFRYh7I3uTz-103">
          <mxGeometry relative="1" as="geometry">
            <mxPoint x="454.9348406798192" y="-195.7427374192671" as="targetPoint" />
          </mxGeometry>
        </mxCell>
        <mxCell id="_PU9kLbxLvFRYh7I3uTz-92" style="rounded=0;orthogonalLoop=1;jettySize=auto;html=1;exitX=0;exitY=0.5;exitDx=0;exitDy=0;endArrow=none;startFill=0;" edge="1" parent="1" source="_PU9kLbxLvFRYh7I3uTz-96" target="_PU9kLbxLvFRYh7I3uTz-100">
          <mxGeometry relative="1" as="geometry">
            <mxPoint x="190" y="-125" as="targetPoint" />
          </mxGeometry>
        </mxCell>
        <mxCell id="_PU9kLbxLvFRYh7I3uTz-93" style="rounded=0;orthogonalLoop=1;jettySize=auto;html=1;exitX=0;exitY=1;exitDx=0;exitDy=0;endArrow=none;startFill=0;" edge="1" parent="1" source="_PU9kLbxLvFRYh7I3uTz-96" target="_PU9kLbxLvFRYh7I3uTz-101">
          <mxGeometry relative="1" as="geometry">
            <mxPoint x="280" y="-120" as="targetPoint" />
          </mxGeometry>
        </mxCell>
        <mxCell id="_PU9kLbxLvFRYh7I3uTz-94" style="rounded=0;orthogonalLoop=1;jettySize=auto;html=1;exitX=0;exitY=0;exitDx=0;exitDy=0;endArrow=none;startFill=0;" edge="1" parent="1" source="_PU9kLbxLvFRYh7I3uTz-96" target="_PU9kLbxLvFRYh7I3uTz-102">
          <mxGeometry relative="1" as="geometry">
            <mxPoint x="260" y="-200" as="targetPoint" />
          </mxGeometry>
        </mxCell>
        <mxCell id="_PU9kLbxLvFRYh7I3uTz-96" value="EndereçoPag" style="ellipse;shape=doubleEllipse;margin=3;whiteSpace=wrap;html=1;align=center;" vertex="1" parent="1">
          <mxGeometry x="305" y="-180" width="110" height="50" as="geometry" />
        </mxCell>
        <mxCell id="_PU9kLbxLvFRYh7I3uTz-97" value="Estado" style="ellipse;whiteSpace=wrap;html=1;align=center;" vertex="1" parent="1">
          <mxGeometry x="450" y="-175" width="100" height="40" as="geometry" />
        </mxCell>
        <mxCell id="_PU9kLbxLvFRYh7I3uTz-98" value="Cidade" style="ellipse;whiteSpace=wrap;html=1;align=center;" vertex="1" parent="1">
          <mxGeometry x="440" y="-120" width="100" height="40" as="geometry" />
        </mxCell>
        <mxCell id="_PU9kLbxLvFRYh7I3uTz-100" value="Logradouro" style="ellipse;whiteSpace=wrap;html=1;align=center;" vertex="1" parent="1">
          <mxGeometry x="160" y="-175" width="100" height="40" as="geometry" />
        </mxCell>
        <mxCell id="_PU9kLbxLvFRYh7I3uTz-101" value="Bairro" style="ellipse;whiteSpace=wrap;html=1;align=center;" vertex="1" parent="1">
          <mxGeometry x="170" y="-120" width="100" height="40" as="geometry" />
        </mxCell>
        <mxCell id="_PU9kLbxLvFRYh7I3uTz-102" value="Número" style="ellipse;whiteSpace=wrap;html=1;align=center;" vertex="1" parent="1">
          <mxGeometry x="170" y="-230" width="100" height="40" as="geometry" />
        </mxCell>
        <mxCell id="_PU9kLbxLvFRYh7I3uTz-103" value="Complemento" style="ellipse;whiteSpace=wrap;html=1;align=center;" vertex="1" parent="1">
          <mxGeometry x="440" y="-230" width="100" height="40" as="geometry" />
        </mxCell>
        <mxCell id="_PU9kLbxLvFRYh7I3uTz-106" style="rounded=0;orthogonalLoop=1;jettySize=auto;html=1;exitX=0.5;exitY=1;exitDx=0;exitDy=0;endArrow=none;startFill=0;" edge="1" parent="1" source="_PU9kLbxLvFRYh7I3uTz-105" target="_PU9kLbxLvFRYh7I3uTz-107">
          <mxGeometry relative="1" as="geometry">
            <mxPoint x="310" y="560" as="targetPoint" />
          </mxGeometry>
        </mxCell>
        <mxCell id="_PU9kLbxLvFRYh7I3uTz-105" value="Possui" style="shape=rhombus;perimeter=rhombusPerimeter;whiteSpace=wrap;html=1;align=center;" vertex="1" parent="1">
          <mxGeometry x="322.5" y="460" width="105" height="50" as="geometry" />
        </mxCell>
        <mxCell id="_PU9kLbxLvFRYh7I3uTz-107" value="Tipo" style="whiteSpace=wrap;html=1;align=center;" vertex="1" parent="1">
          <mxGeometry x="325" y="545" width="100" height="40" as="geometry" />
        </mxCell>
        <mxCell id="_PU9kLbxLvFRYh7I3uTz-112" value="N" style="text;html=1;align=center;verticalAlign=middle;resizable=0;points=[];autosize=1;strokeColor=none;fillColor=none;" vertex="1" parent="1">
          <mxGeometry x="365" y="430" width="30" height="30" as="geometry" />
        </mxCell>
        <mxCell id="_PU9kLbxLvFRYh7I3uTz-115" value="1" style="text;html=1;align=center;verticalAlign=middle;resizable=0;points=[];autosize=1;strokeColor=none;fillColor=none;" vertex="1" parent="1">
          <mxGeometry x="365" y="520" width="30" height="30" as="geometry" />
        </mxCell>
        <mxCell id="5Rr3qvpYgy1Libs17Bm0-1" value="Itens" style="rhombus;whiteSpace=wrap;html=1;" vertex="1" parent="1">
          <mxGeometry x="320" y="310" width="110" height="50" as="geometry" />
        </mxCell>
        <mxCell id="5Rr3qvpYgy1Libs17Bm0-4" value="N" style="text;html=1;align=center;verticalAlign=middle;whiteSpace=wrap;rounded=0;" vertex="1" parent="1">
          <mxGeometry x="350" y="275" width="60" height="30" as="geometry" />
        </mxCell>
        <mxCell id="xr5VpKZixJx37Hbg6I54-3" style="rounded=0;orthogonalLoop=1;jettySize=auto;html=1;exitX=0.5;exitY=0;exitDx=0;exitDy=0;endArrow=none;startFill=0;entryX=0.5;entryY=1;entryDx=0;entryDy=0;" edge="1" parent="1" source="_PU9kLbxLvFRYh7I3uTz-24">
          <mxGeometry relative="1" as="geometry">
            <mxPoint x="745" y="205" as="targetPoint" />
          </mxGeometry>
        </mxCell>
        <mxCell id="s_ojGgU6DRaEUJz3Hm9i-3" value="Email" style="ellipse;whiteSpace=wrap;html=1;align=center;" vertex="1" parent="1">
          <mxGeometry x="840" y="10" width="100" height="40" as="geometry" />
        </mxCell>
        <mxCell id="aaiw1BDzL_tDE3YJd6zU-1" value="InscriçãoEstadual" style="ellipse;whiteSpace=wrap;html=1;align=center;fontStyle=4;" vertex="1" parent="1">
          <mxGeometry x="695" y="90" width="124" height="40" as="geometry" />
        </mxCell>
        <mxCell id="aaiw1BDzL_tDE3YJd6zU-2" value="CNPJ" style="ellipse;whiteSpace=wrap;html=1;align=center;fontStyle=4;" vertex="1" parent="1">
          <mxGeometry x="545" y="90" width="90" height="40" as="geometry" />
        </mxCell>
        <mxCell id="aaiw1BDzL_tDE3YJd6zU-3" value="RazãoSocial" style="ellipse;whiteSpace=wrap;html=1;align=center;fontStyle=4;" vertex="1" parent="1">
          <mxGeometry x="500" y="-80" width="100" height="40" as="geometry" />
        </mxCell>
        <mxCell id="m5g3iq_92Rt_BeEw3amc-4" value="" style="edgeStyle=orthogonalEdgeStyle;rounded=0;orthogonalLoop=1;jettySize=auto;html=1;entryX=0;entryY=0.5;entryDx=0;entryDy=0;endArrow=none;startFill=0;" edge="1" parent="1" source="m5g3iq_92Rt_BeEw3amc-3" target="_PU9kLbxLvFRYh7I3uTz-24">
          <mxGeometry relative="1" as="geometry">
            <mxPoint x="670" y="280" as="targetPoint" />
          </mxGeometry>
        </mxCell>
        <mxCell id="m5g3iq_92Rt_BeEw3amc-3" value="Possui" style="shape=rhombus;perimeter=rhombusPerimeter;whiteSpace=wrap;html=1;align=center;" vertex="1" parent="1">
          <mxGeometry x="530" y="220" width="120" height="60" as="geometry" />
        </mxCell>
        <mxCell id="m5g3iq_92Rt_BeEw3amc-6" value="N" style="text;strokeColor=none;fillColor=none;spacingLeft=4;spacingRight=4;overflow=hidden;rotatable=0;points=[[0,0.5],[1,0.5]];portConstraint=eastwest;fontSize=12;whiteSpace=wrap;html=1;" vertex="1" parent="1">
          <mxGeometry x="680" y="245" width="40" height="30" as="geometry" />
        </mxCell>
        <mxCell id="m5g3iq_92Rt_BeEw3amc-7" value="1" style="text;html=1;align=center;verticalAlign=middle;resizable=0;points=[];autosize=1;strokeColor=none;fillColor=none;" vertex="1" parent="1">
          <mxGeometry x="470" y="240" width="30" height="30" as="geometry" />
        </mxCell>
        <mxCell id="m5g3iq_92Rt_BeEw3amc-8" value="DataVencimento" style="ellipse;whiteSpace=wrap;html=1;align=center;" vertex="1" parent="1">
          <mxGeometry x="695" y="170" width="100" height="40" as="geometry" />
        </mxCell>
        <mxCell id="ow0F6I_q-5kkgGnikvDh-3" style="edgeStyle=orthogonalEdgeStyle;rounded=0;orthogonalLoop=1;jettySize=auto;html=1;exitX=0;exitY=0.5;exitDx=0;exitDy=0;entryX=1;entryY=0.5;entryDx=0;entryDy=0;endArrow=none;startFill=0;" edge="1" parent="1" source="ow0F6I_q-5kkgGnikvDh-2" target="_PU9kLbxLvFRYh7I3uTz-49">
          <mxGeometry relative="1" as="geometry" />
        </mxCell>
        <mxCell id="ow0F6I_q-5kkgGnikvDh-4" style="rounded=0;orthogonalLoop=1;jettySize=auto;html=1;exitX=0.5;exitY=0;exitDx=0;exitDy=0;endArrow=none;startFill=0;" edge="1" parent="1" source="ow0F6I_q-5kkgGnikvDh-2" target="ow0F6I_q-5kkgGnikvDh-5">
          <mxGeometry relative="1" as="geometry">
            <mxPoint x="425" y="-30" as="targetPoint" />
          </mxGeometry>
        </mxCell>
        <mxCell id="ow0F6I_q-5kkgGnikvDh-2" value="Contato" style="shape=rhombus;perimeter=rhombusPerimeter;whiteSpace=wrap;html=1;align=center;" vertex="1" parent="1">
          <mxGeometry x="365" y="5" width="120" height="50" as="geometry" />
        </mxCell>
        <mxCell id="ow0F6I_q-5kkgGnikvDh-5" value="Data" style="ellipse;whiteSpace=wrap;html=1;align=center;" vertex="1" parent="1">
          <mxGeometry x="375" y="-50" width="100" height="40" as="geometry" />
        </mxCell>
        <mxCell id="ow0F6I_q-5kkgGnikvDh-10" value="N" style="text;html=1;align=center;verticalAlign=middle;resizable=0;points=[];autosize=1;strokeColor=none;fillColor=none;" vertex="1" parent="1">
          <mxGeometry x="297.5" y="10" width="30" height="30" as="geometry" />
        </mxCell>
        <mxCell id="ow0F6I_q-5kkgGnikvDh-11" value="N" style="text;html=1;align=center;verticalAlign=middle;resizable=0;points=[];autosize=1;strokeColor=none;fillColor=none;" vertex="1" parent="1">
          <mxGeometry x="510" y="5" width="30" height="30" as="geometry" />
        </mxCell>
        <mxCell id="NPfEQ7upz3xerd07tgqB-2" style="edgeStyle=orthogonalEdgeStyle;rounded=0;orthogonalLoop=1;jettySize=auto;html=1;exitX=0.5;exitY=1;exitDx=0;exitDy=0;entryX=0.75;entryY=0;entryDx=0;entryDy=0;endArrow=none;startFill=0;" edge="1" parent="1" source="NPfEQ7upz3xerd07tgqB-1" target="_PU9kLbxLvFRYh7I3uTz-47">
          <mxGeometry relative="1" as="geometry" />
        </mxCell>
        <mxCell id="NPfEQ7upz3xerd07tgqB-1" value="Nome" style="ellipse;whiteSpace=wrap;html=1;align=center;" vertex="1" parent="1">
          <mxGeometry x="560" y="-40" width="100" height="40" as="geometry" />
        </mxCell>
      </root>
    </mxGraphModel>
  </diagram>
</mxfile>
